<?xml version="1.0" encoding="utf-8"?>
<svg viewBox="0 9 30 30" width="30" height="30" xmlns="http://www.w3.org/2000/svg">
  <g transform="matrix(1, 0, 0, 1, 0, 11.959727)">
    <path d="M0,0h24 M24,24H0" fill="none"/>
    <path d="M4.25,5.61C6.27,8.2,10,13,10,13v6c0,0.55,0.45,1,1,1h2c0.55,0,1-0.45,1-1v-6c0,0,3.72-4.8,5.74-7.39 C20.25,4.95,19.78,4,18.95,4H5.04C4.21,4,3.74,4.95,4.25,5.61z"/>
    <path d="M0,0h24v24H0V0z" fill="none"/>
  </g>
  <path d="M 21.161 21.464 L 32.502 21.464 L 32.502 32.806 L 21.161 32.806 L 21.161 21.464 Z" fill="none" style=""/>
  <path d="M 20.449 25.181 L 19.224 26.403 L 18.002 25.181 L 17.335 25.847 L 18.559 27.07 L 17.335 28.294 L 18.002 28.961 L 19.224 27.736 L 20.449 28.961 L 21.115 28.294 L 19.89 27.07 L 21.115 25.847 L 20.449 25.181 Z M 19.224 22.345 C 16.611 22.345 14.5 24.457 14.5 27.07 C 14.5 29.684 16.611 31.796 19.224 31.796 C 21.838 31.796 23.95 29.684 23.95 27.07 C 23.95 24.457 21.838 22.345 19.224 22.345 Z M 19.224 30.851 C 17.14 30.851 15.444 29.155 15.444 27.07 C 15.444 24.986 17.14 23.29 19.224 23.29 C 21.309 23.29 23.006 24.986 23.006 27.07 C 23.006 29.155 21.309 30.851 19.224 30.851 Z" style=""/>
</svg>