<?xml version="1.0" encoding="utf-8"?>
<svg viewBox="0 0 20 20" width="20" height="20" xmlns="http://www.w3.org/2000/svg">
  <g transform="matrix(1, 0, 0, 1, -3.5, -2)">
    <path d="M0,0h24 M24,24H0" fill="none"/>
    <path d="M4.25,5.61C6.27,8.2,10,13,10,13v6c0,0.55,0.45,1,1,1h2c0.55,0,1-0.45,1-1v-6c0,0,3.72-4.8,5.74-7.39 C20.25,4.95,19.78,4,18.95,4H5.04C4.21,4,3.74,4.95,4.25,5.61z"/>
    <path d="M0,0h24v24H0V0z" fill="none"/>
  </g>
  <path d="M0 0h24v24H0z" fill="none" transform="matrix(1, 0, 0, 1, 7.53891, 3.199815)"/>
  <path d="M 17.222 10 L 11.889 10 C 11.395 10 11 10.4 11 10.889 L 11 17.111 C 11 17.6 11.395 18 11.889 18 L 18.111 18 C 18.6 18 19 17.6 19 17.111 L 19 11.778 L 17.222 10 Z M 15.001 17.111 C 14.263 17.111 13.665 16.515 13.665 15.778 C 13.665 15.039 14.263 14.444 15.001 14.444 C 15.737 14.444 16.334 15.039 16.334 15.778 C 16.334 16.515 15.737 17.111 15.001 17.111 Z M 16.334 12.667 L 11.889 12.667 L 11.889 10.889 L 16.334 10.889 L 16.334 12.667 Z" style="">
  </path>
</svg>